<svg width="400" height="100" viewBox="0 0 4000 1000"><g transform="scale(1,-1)"><path d="M454 32q0-83-26-126-46-82-174-82Q78-176 70-27h19q5-49 24-76 40-56 140-56 108 0 150 61 32 45 32 141v120q-12-34-28-57-56-80-161-80-94 0-147 62-54 61-54 169 0 105 56 170 57 64 149 64 141 0 185-141v128h19V32M250 474q-84 0-135-59-51-60-51-159 0-97 49-155t131-58q87 0 139 58 52 59 52 156 0 98-51 157-51 60-134 60Z" transform=" translate(0,-650)"/><path d="M267 491q95 0 152-70 58-71 58-186 0-112-59-180-58-68-156-68-99 0-158 69-59 68-59 183 0 114 61 183t161 69m-2-17q-90 0-145-64-56-64-56-167 0-110 53-175Q171 4 262 4q89 0 143 63 53 63 53 168 0 107-53 173t-140 66Z" transform=" translate(500,-650)"/><path d="M267 491q95 0 152-70 58-71 58-186 0-112-59-180-58-68-156-68-99 0-158 69-59 68-59 183 0 114 61 183t161 69m-2-17q-90 0-145-64-56-64-56-167 0-110 53-175Q171 4 262 4q89 0 143 63 53 63 53 168 0 107-53 173t-140 66Z" transform="translate(1000,-650)"/><path d="M465 0h-19v137Q406-13 253-13q-96 0-152 66T45 233q0 119 57 189 58 69 156 69 94 0 151-72 19-23 37-71v319h19V0M254 474q-88 0-139-64-51-65-51-175Q64 4 252 4q89 0 141 64 52 63 52 171t-52 172q-51 63-139 63Z" transform="translate(1500,-650)"/><path d="M325 414h-4l-2 1-19 1q-63 0-105-42-46-47-46-186V0H70v483h74V382q50 115 181 115v-83Z" transform="translate(2000,-650)"/></g></svg>